<?xml version="1.0" encoding="UTF-8" standalone="no"?>
<!-- Created with Inkscape (http://www.inkscape.org/) -->
<svg id="svg2" xmlns:rdf="http://www.w3.org/1999/02/22-rdf-syntax-ns#" xmlns="http://www.w3.org/2000/svg" height="100" width="165" version="1.1" xmlns:cc="http://creativecommons.org/ns#" xmlns:xlink="http://www.w3.org/1999/xlink" viewBox="0 0 165 100" xmlns:dc="http://purl.org/dc/elements/1.1/">
 <metadata id="metadata7">
  <rdf:RDF>
   <cc:Work rdf:about="">
    <dc:format>image/svg+xml</dc:format>
    <dc:type rdf:resource="http://purl.org/dc/dcmitype/StillImage"/>
    <dc:title/>
   </cc:Work>
  </rdf:RDF>
 </metadata>
 <g id="layer1" transform="translate(0 -952.36)" stroke="#023493">
  <path id="path3771" d="m0.60485 999.99v-29.466l31.637-0.15943c17.4-0.0877 54.473-0.0867 82.384 0.002l50.748 0.16158v29.463 29.463h-82.384-82.384v-29.466zm78.229 23.948 1.5265-1.4572-0.67882-3.1377c-2.3139-10.695-2.2935-11.363 0.34808-11.38l1.1726-0.01-1.0415 1.9763-1.0415 1.9763 1.2662 1.3226c1.5988 1.67 4.3342 1.8493 6.3198 0.4142 0.76758-0.5547 2.1743-2.3823 3.126-4.0613 1.63-2.8754 1.9096-3.1112 4.8169-4.0616l3.0864-1.009 1.5523 2.6625c2.1536 3.6939 6.6942 7.78 8.6454 7.78 1.5062 0 4.7566-0.9022 4.7566-1.3204 0-0.1223-0.90448-1.3941-2.01-2.826-1.6694-2.1624-5.2213-8.3048-5.2213-9.0292 0-0.3022 5.7399-4.4435 5.8828-4.2445 0.0672 0.093 0.54728 1.9701 1.0669 4.1701 1.5206 6.438 2.7425 9.3374 4.7908 11.368 1.6532 1.6389 2.2067 1.8821 4.2827 1.8821h2.3841l2.0049-7.0997 2.0049-7.0996 0.66616 2.7246c1.5166 6.2034 2.2708 7.9527 4.1858 9.7099 1.6297 1.4953 2.2755 1.7568 4.3475 1.7605 2.4322 0 2.4338 0 2.9916-2.1207 1.4509-5.5249 3.1946-11.164 3.5634-11.523 0.2246-0.219 0.82278 0.681 1.3293 2 1.631 4.2473 3.9898 8.1223 6.031 9.9074 1.6912 1.479 2.3639 1.7408 4.4729 1.7408 1.3653 0 2.9045-0.2988 3.4203-0.6639 0.88259-0.6247 0.82266-0.8092-1.0155-3.125-2.5094-3.1615-4.4771-7.3707-5.942-12.711-1.7935-6.5381-2.8436-8.3872-5.4317-9.5648-1.2437-0.5659-2.9572-0.9351-3.9222-0.84507-1.6667 0.1555-1.7658 0.29701-3.6142 5.1599-1.0453 2.75-2.0499 5.45-2.2325 6-0.22955 0.6914-0.69036-0.3927-1.493-3.5125-0.63856-2.4819-1.339-4.7914-1.5566-5.1322-0.81205-1.2719-4.4963-2.6618-6.647-2.5075l-2.1207 0.15212-2.0596 5.9895-2.0595 5.9895-1.1046-3.9895c-0.60755-2.1942-1.3911-4.4938-1.7411-5.1102-0.82872-1.4591-4.4376-3.1293-6.7619-3.1293-1.6135 0-2.2376 0.43045-5.2564 3.625l-3.4255 3.625-1.1351-2.5541c-0.95327-2.1449-1.5248-2.7308-3.5678-3.657-1.708-0.77439-3.1677-1.0562-4.9001-0.94592l-2.4674 0.15705-1.4843 4.25c-3.0686 8.7865-3.4531 9.2205-8.6664 9.7817l-3.2282 0.3475-0.0942-4.1896c-0.21848-9.7112 0.43081-12.585 3.3027-14.616 1.9736-1.3958 6.5408-1.3284 10.06 0.14831 2.8909 1.213 3.5814 1.0893 4.3127-0.7728 0.7552-1.9228-0.35864-3.4949-3.5775-5.0495-2.53-1.2219-3.4903-1.3999-7.5474-1.3996-6.1479 0.00043-9.8035 1.5165-12.097 5.017-2.0755 3.168-2.624 6.0961-2.624 14.007v6.7254h-2.0924c-1.8768 0-2.1625-0.1674-2.7726-1.625-0.37413-0.8937-1.0869-3.3125-1.584-5.375-0.49709-2.0625-1.2076-4.2225-1.5788-4.8-0.61934-0.96332-4.7946-2.7326-8.0256-3.4009-1.2538-0.25932-1.4649 0.006-3.5593 4.4767-1.2246 2.6138-2.4193 4.8677-2.655 5.0087-0.23568 0.141-1.1211-0.0903-1.9676-0.51407-0.84648-0.42374-1.783-0.77044-2.0812-0.77044-0.94657 0-0.58444 2.8131 0.5403 4.1973 1.2408 1.527 0.9881 2.1335-2.1898 5.256-2.8866 2.8364-6.7248 4.2587-11.547 4.2792-6.1864 0.026-9.6994-1.6357-11.561-5.4693-1.3685-2.8182-1.3835-4.868-0.055-7.5245 2.7869-5.5729 12.16-8.1497 19.044-5.2356 2.6979 1.142 2.8007 1.1492 3.4865 0.24124 0.97558-1.2915 0.88484-3.5005-0.18636-4.5374-0.49115-0.47545-1.9438-1.3353-3.2282-1.9107-3.4811-1.5597-12.448-1.5061-16.819 0.10054-4.1379 1.5209-7.8054 4.2857-9.7542 7.3532-1.3761 2.166-1.5882 2.9675-1.5882 6 0 4.417 0.99615 6.4506 5.146 10.506 6.0363 5.8983 14.438 8.0361 23.476 5.9738 4.7233-1.0778 7.9567-2.9629 11.593-6.759l3.1725-3.3119 2.5469 0.8273c2.1512 0.6989 2.6812 1.1332 3.412 2.7958 0.97907 2.2277 4.8491 6.1122 6.4973 6.5217 1.1377 0.2826 5.3636-0.6174 5.3636-1.1423 0-0.1652-0.69729-1.3974-1.5495-2.7382-0.85226-1.3408-1.5496-2.5469-1.5496-2.6803 0-0.5512 2.6301-0.1923 2.8028 0.3825 0.1033 0.3438 0.78519 3.775 1.5154 7.625 1.0618 5.5984 1.538 7.1374 2.3786 7.686 0.57804 0.3773 1.051 1.0204 1.051 1.4292 0 1.1514 2.5629 0.3401 4.3673-1.3825z" fill-rule="evenodd" stroke-width=".1" fill="#008ad5"/>
  <path id="path3773" d="m92.875 979.64c0.16346 0.33606 0.25 0.71039 0.25 1.0938 0 1.6183 0.0143 1.607-3.3125 0.4375-3.154-1.1088-8.6658-0.79177-10.562 0.59375-3.5478 2.5917-4.3199 5.6175-3.875 15.125l0.28125 6.1875 1.5938-0.1875v-5.5312c0.0355-10.039 0.96068-12.562 5.0312-13.875 2.1842-0.70476 4.2327-0.45839 10.812 1.2812 0.88885 0.235 1.2401 0.032 1.6562-1.0625 0.57023-1.4998-0.20104-2.9519-1.875-4.0625zm-20.906 3.1875c-1.7787 2.5474-2.2188 5.7429-2.2188 12.969v7.0625l0.5625 0.062-0.28125-6.4063c-0.28767-6.3288 0.27078-10.652 1.9375-13.688zm-41.094 4.53c-2.266-0.0312-4.5588 0.23243-6.3438 0.8125-1.3953 0.45343-3.514 1.611-4.6875 2.5938-4.8589 4.0693-5.4503 9.4508-1.7188 13.719-0.23265-0.4766-0.43249-0.9883-0.59375-1.5313-1.4396-4.8476 0.87628-9.0787 6.2812-11.469 4.408-1.9492 7.7721-1.901 15.25 0.25 0.78469 0.22571 1.2539 0.0331 1.6562-0.71875 0.71818-1.3419 0.42775-2.5857-0.625-3.625 0.0367 0.33161 0.0226 0.67254-0.0937 1.0312-0.29064 0.89597-0.39143 0.88256-2.9688-0.0937-1.6564-0.62748-3.8902-0.93753-6.1562-0.96875zm-14.594 0.4375c-0.89236 0.5782-1.7454 1.2305-2.5625 1.9688-3.3152 2.9951-4.1875 4.9018-4.1875 8.9375 0 4.2088 1.2315 6.729 5.0625 10.312 4.9049 4.588 9.8099 6.4918 16.656 6.4688 7.4925-0.025 11.969-1.8271 17.719-7.125l3.8438-3.5625 2.3125 0.9687c1.7189 0.7126 2.784 1.6607 4.3125 3.8125 2.9216 4.1131 5.0114 5.5088 7.7188 5.2188 1.1823-0.1267 2.2508-0.3445 2.4062-0.5 0.15543-0.1554-0.28098-1.3385-1-2.625-1.6486-2.9497-1.6367-3.2188 0.15625-3.2188 1.3826 0 1.4859 0.1608 2.0312 2.875 1.8847 9.3799 2.5365 11.785 3.5938 13.125 0.62782 0.7955 1.3382 1.4538 1.5625 1.4688 0.63295 0.043 2.4715-0.9833 3.625-2.0313l1.0625-0.9687-1.1875-5.5938c-0.64653-3.0877-1.1036-6.3-1.0312-7.125 0.11346-1.2939 0.34829-1.5211 1.75-1.6562 1.8638-0.1797 1.9094-0.092 0.84375 1.9687-0.12488 0.2415-0.22992 0.4789-0.3125 0.6875 0.21092-0.4283 0.62312-1.0412 1.25-2 0.97641-1.4935 1.7812-2.8983 1.7812-3.125 0-0.412-2.8471-0.3104-6.0625 0.1875l-1.7188 0.25 0.375 2.5938c0.19216 1.4269 0.77144 4.4742 1.3125 6.7812 0.54106 2.3069 0.85969 4.6255 0.6875 5.1563-0.28019 0.8637-3.0184 2.9014-3.9062 2.9062-0.19186 0-0.47132-0.3938-0.625-0.875-0.59747-1.871-2.2874-10.541-2.625-13.469-0.29601-2.5669-0.53081-3.1058-1.4375-3.3438-1.2889-0.3384-4.9062-0.4118-4.9062-0.094 0 0.3723 2.1573 3.975 2.9062 4.8437 0.62219 0.7218 0.50647 0.8825-0.9375 1.375-0.89933 0.3068-2.0326 0.5625-2.5312 0.5625-1.6774 0-3.9789-2.4771-5.0938-5.4687l-1.0938-2.9063-3.6562-1.0625-3.6562-1.0312-0.9375 1.0937c-6.0131 7.2788-12.685 10.344-21.312 9.75-8.9632-0.617-16.369-5.8114-17.906-12.531-1.1444-5.0035 1.2788-9.7496 5.7188-13zm35.938 0.75c-0.5283 0.56921-1.1802 1.773-2.4688 4.1562-1.4316 2.6478-2.0386 3.8835-2.75 4.3125 0.55507 0.2579 0.9911 0.4375 1.0625 0.4375 0.11638 0 1.2389-2.261 2.4688-5.0312l1.6875-3.875zm38.938 0.65625-2.0312 5.375c-1.7107 4.574-2.7767 6.5305-4.5 7.4375 1.8055-0.3875 2.0463-0.9492 2.8438-2.5 1.1635-2.2625 3.3449-8.2905 3.7812-10.312h-0.0937zm40.188 0.40625c0.88534 1.3867 1.5292 3.8803 2.4375 8.3437 0.64356 3.1625 1.3261 5.926 1.5312 6.1563 0.15389 0.1727 0.97763-1.7283 2.0312-4.5938-0.13864 0.1874-0.26848 0.3063-0.34375 0.2813-0.27126-0.091-1.0523-2.0537-1.75-4.3438-1.1108-3.6462-2.03-5.2094-3.9062-5.8438zm15.344 0.0937c0.91164 1.2884 1.6807 3.4136 2.5938 6.75 1.5101 5.518 3.3576 9.7889 5.5 12.781 2.3179 3.2374 2.1311 3.7059-1.4375 3.7187-0.96484 0-1.8286-0.2183-2.625-0.75 0.21242 0.26 0.44598 0.5397 0.625 0.7188 1.8488 1.8488 2.2559 2.0412 4.5938 2.0312 3.768-0.011 4.0278-0.4039 2.25-3.0312-2.4852-3.6727-4.2489-7.4356-5.9375-12.719-0.87885-2.7497-2.0345-5.8176-2.5938-6.8125-0.64707-1.1513-1.7155-2.0818-2.9688-2.6875zm-30.969 0.25c1.1612 1.7528 2.0347 4.8481 3.0625 10.094 0.4734 2.4162 0.99039 4.4062 1.1562 4.4062 0.1422 0 1.2445-2.9556 2.5-6.5937-0.84193 2.1643-1.279 2.871-1.4375 2.3437-2.2437-7.4637-3.0055-9.0066-5-10.125-0.0837-0.0469-0.19124-0.0797-0.28125-0.125zm-16.906 0.125c0.40649 0.66341 0.78584 1.5147 1.2188 2.625 0.64333 1.65 1.3485 3.199 1.5625 3.4375 0.12656 0.14105 0.53348-0.0532 1.0938-0.4375l-1-2.0625c-0.88875-1.7733-1.7379-2.8914-2.875-3.5625zm-38.938 0.5625c0.11847 0.28904 0.22084 0.59123 0.3125 0.9375 1.9013 7.1827 2.6188 9.708 2.9375 10.188 0.11569 0.174 0.77859 0.3599 1.6562 0.5313-0.5959-0.812-1.1222-2.6104-2.375-6.5938l-1.4062-4.5-1.125-0.5625zm34.188 2.0625-1.0938 3.5938c-0.61236 1.9678-1.125 3.697-1.125 3.8438 0 0.1469 1.0382-0.1069 2.3125-0.5312 1.997-0.6658 2.2838-0.9196 2-1.8438-0.1811-0.5897-0.73789-1.9625-1.2188-3.0625l-0.875-2zm-39.156 0.4375c-0.12193-0.1193-0.71543 1.1577-1.3438 2.8438-1.1644 3.1245-1.0868 3.7002 0.71875 4.1251 2.7896 0.6565 2.7928 0.6601 1.7812-3.1876-0.51259-1.9498-1.0343-3.662-1.1562-3.7812zm56.281 0.1875-2.125 2c-1.1714 1.0937-2.9868 2.5893-4.0312 3.3438l-1.9062 1.375 1.8438 3.5937c1.008 1.9683 2.6007 4.616 3.5625 5.9063 1.6812 2.2554 1.7212 2.3664 0.75 2.875-0.55563 0.2908-1.7511 0.5312-2.6562 0.5312-2.1804 0-4.7172-2.6186-7.0938-7.3125l-1.8125-3.5312-3.8438 1.1562c-3.5021 1.0549-3.9527 1.3312-4.7812 3.0313-2.2423 4.6006-5.7239 7.3302-7.9062 6.1875-0.489-0.2561-0.73791-0.4152-0.6875-0.7813-0.27897 1.1403 0.27467 1.7859 1.9688 2.5938 1.6466 0.7849 1.8795 0.7727 3.5 0 1.1321-0.5398 2.4821-1.9379 3.875-4.0625 1.8548-2.8293 2.4872-3.4107 4.7812-4.2813 1.4541-0.552 2.9166-0.9787 3.25-0.9687 0.33343 0.01 1.6375 1.5067 2.875 3.3437 1.2375 1.8369 3.2403 4.0987 4.4688 5.0313 1.9884 1.5099 2.5176 1.6742 4.6562 1.4687 1.3213-0.127 2.4905-0.3341 2.625-0.4687 0.13451-0.1345-0.84762-1.901-2.1875-3.9375-3.6691-5.5767-4.7453-7.8962-4.0625-8.7188 0.72239-0.8704 5.482-3.9396 5.7188-3.6875 0.0978 0.1041 0.7477 2.4031 1.4688 5.125 0.36509 1.3782 0.76992 2.6721 1.1875 3.8438-0.34713-1.1702-0.67661-2.5206-1.0312-4.0625-0.72248-3.1413-1.5403-6.59-1.8438-7.6563l-0.5625-1.9375zm15.969 2.625c-0.33461 0-3.89 11.247-4.9375 15.625-0.27716 1.1582-0.60654 1.375-2.0312 1.375-0.93027 0-2.0434-0.1412-2.5-0.3125-0.15243-0.057-0.31709-0.157-0.46875-0.2812 0.50385 0.7219 1.0259 1.2922 1.5312 1.6562 0.6875 0.4951 2.1528 1.045 3.2812 1.2188l2.0625 0.3125 1.9062-6.9063c1.0443-3.8099 2.0511-7.1172 2.25-7.3437 0.1911-0.2178 0.7116 1.1389 1.1875 3.0312-0.24524-1.0431-0.51969-2.191-0.8125-3.5-0.59977-2.6813-1.2509-4.875-1.4688-4.875zm15.281 0c-0.28906 0-2.9683 8.6857-4.5938 14.875-0.55207 2.102-0.58089 2.125-2.8438 2.125-1.0568 0-1.829-0.099-2.4688-0.5625 1.3366 1.8749 2.9521 2.6108 5.0938 2.4688l2.25-0.1563 1.625-5.5c2.0268-6.9215 2.386-7.7822 3-7.3437 0.17069 0.1218 0.74336 1.0919 1.4062 2.3125-0.22989-0.5789-0.47581-1.1317-0.71875-1.7813-1.3238-3.5394-2.5678-6.4375-2.75-6.4375zm-99.125 0.65625c-0.79983 0.0995-0.75953 1.1872 0.1875 2.8438 1.187 2.0765 0.87129 3.1729-1.625 5.625-1.9906 1.9553-4.2855 3.3314-6.8438 4.0938 4.0646-0.9374 6.8624-2.805 9.5-6.3125l1.476-2-1.3438-1.375c-0.77197-0.7884-1.3438-1.9447-1.3438-2.7188 0-0.0833-0.00043-0.11274 0-0.1875z" stroke-width=".1" fill="#2a348f"/>
 </g>
</svg>
