<?xml version="1.0" encoding="UTF-8" standalone="no"?>
<!-- Created with Inkscape (http://www.inkscape.org/) -->
<svg id="svg2" xmlns:rdf="http://www.w3.org/1999/02/22-rdf-syntax-ns#" xmlns="http://www.w3.org/2000/svg" height="100" width="165" version="1.1" xmlns:cc="http://creativecommons.org/ns#" xmlns:dc="http://purl.org/dc/elements/1.1/" viewBox="0 0 165 100">
 <metadata id="metadata7">
  <rdf:RDF>
   <cc:Work rdf:about="">
    <dc:format>image/svg+xml</dc:format>
    <dc:type rdf:resource="http://purl.org/dc/dcmitype/StillImage"/>
    <dc:title/>
   </cc:Work>
  </rdf:RDF>
 </metadata>
 <g id="layer1" transform="translate(0 -952.36)">
  <rect id="rect3892" transform="translate(0 952.36)" height="50.508" width="139.15" y="19.945" x="18.688" fill="#000080"/>
  <path id="rect3025" d="m31.688 19.031l-0.094 0.657h-31.625l-0.00025 55.062h164.91v-55.062h-132.66l2.561 20.843c5.121 0.838 9.583 4.851 11.094 10.657 2.059 7.909-2.117 16.145-9.344 18.406l-3.75-14.313 3.719 14.344c-1.494 0.466-3 0.591-4.469 0.5l-0.093-14.875v-14.844c0.02 0.001 0.041 0.001 0.062 0v-13.468l0.188-7.25h-0.5v-0.657zm78.032 18.313c2.21 0 4.39 0.261 6.56 0.781v3.281c-1.83-0.629-3.14-1.006-3.94-1.125-0.8-0.118-1.55-0.156-2.28-0.156-2.36 0-4.05 0.75-5.09 2.281-1.04 1.532-1.6 3.384-1.59 5.563-0.01 2.379 0.61 4.284 1.84 5.687 1.23 1.404 2.99 2.094 5.22 2.094 0.48 0 1.04-0.051 1.68-0.188v-6.656h4.19v8.688c-1.8 0.465-3.11 0.748-3.93 0.844-0.83 0.096-1.68 0.156-2.6 0.156-3.78 0-6.56-1.022-8.28-3.032-1.72-2.009-2.594-4.544-2.594-7.624 0-2.015 0.401-3.829 1.154-5.438 0.76-1.609 1.91-2.865 3.44-3.781s3.6-1.375 6.22-1.375zm20.31 0c2.08 0 3.87 0.442 5.44 1.312 1.56 0.871 2.78 2.11 3.59 3.75 0.81 1.641 1.22 3.503 1.22 5.563 0 2.069-0.41 3.926-1.22 5.562s-2.01 2.88-3.56 3.75c-1.55 0.871-3.37 1.313-5.47 1.313s-3.91-0.442-5.47-1.313c-1.55-0.87-2.75-2.114-3.56-3.75s-1.22-3.493-1.22-5.562c0-2.06 0.41-3.922 1.22-5.563 0.81-1.64 2-2.879 3.56-3.75 1.57-0.87 3.39-1.312 5.47-1.312zm19.56 0c1.61 0 3.42 0.222 5.44 0.687v3.25c-2.06-0.774-3.66-1.156-4.87-1.156-1 0-1.76 0.214-2.28 0.656-0.53 0.442-0.82 0.974-0.82 1.594 0 0.474 0.16 0.902 0.47 1.313 0.3 0.41 1.09 0.976 2.35 1.687l1.43 0.813c2.21 1.248 3.61 2.329 4.22 3.25 0.6 0.929 0.91 1.967 0.91 3.124 0 1.659-0.63 3.075-1.88 4.25-1.25 1.176-3.24 1.782-5.97 1.782-1.62 0-3.5-0.232-5.65-0.688v-3.468c1.55 0.656 2.73 1.028 3.5 1.156 0.77 0.127 1.48 0.187 2.12 0.187 1.17 0 2.05-0.252 2.63-0.781 0.57-0.529 0.84-1.168 0.84-1.906 0-0.565-0.16-1.076-0.47-1.532-0.31-0.446-1.09-1.007-2.34-1.718l-1.34-0.75c-1.93-1.085-3.26-2.111-3.94-3.032-0.69-0.92-1.03-1.975-1.03-3.187 0-1.522 0.56-2.822 1.71-3.906 1.16-1.085 2.82-1.625 4.97-1.625zm-83.621 0.5h4.219l7.843 20.25h-4.312l-2.125-5.406h-8.313l-2.125 5.406h-3.062l7.875-20.25zm14.937 0h7.563c1.547 0 2.721 0.206 3.531 0.594 0.81 0.387 1.438 0.961 1.906 1.75 0.469 0.788 0.719 1.694 0.719 2.687 0 1.185-0.349 2.291-1.031 3.344-0.683 1.053-1.628 1.85-2.875 2.406l6.593 9.469h-5.124l-5-8.282h-2.313v8.282h-3.969v-20.25zm49.124 2.281c-1.95 0-3.39 0.794-4.34 2.375-0.96 1.581-1.44 3.378-1.44 5.438 0 2.05 0.49 3.878 1.44 5.468 0.95 1.591 2.38 2.375 4.34 2.375 1.95 0 3.39-0.784 4.35-2.375 0.95-1.59 1.4-3.418 1.4-5.468 0-2.06-0.45-3.857-1.4-5.438-0.96-1.581-2.41-2.375-4.35-2.375zm-45.155 0.5v6.406h0.969c1.738 0 2.938-0.368 3.594-1.125 0.655-0.756 0.968-1.636 0.968-2.594 0-0.829-0.244-1.481-0.781-1.968-0.537-0.488-1.634-0.719-3.281-0.719h-1.469zm-56.219 0.469l-3.656 26.375c-2.479-1.882-4.42-4.666-5.312-8.094-2.022-7.765 1.987-15.848 8.968-18.281zm38.782 0.812l-3.126 8.094h6.282l-3.156-8.094z" transform="translate(0 952.36)" fill="#bf1"/>
 </g>
</svg>
