<?xml version="1.0" encoding="UTF-8" standalone="no"?>
<!-- Created with Inkscape (http://www.inkscape.org/) -->
<svg id="svg2" xmlns:rdf="http://www.w3.org/1999/02/22-rdf-syntax-ns#" xmlns="http://www.w3.org/2000/svg" xmlns:osb="http://www.openswatchbook.org/uri/2009/osb" height="100" width="165" version="1.1" xmlns:cc="http://creativecommons.org/ns#" viewBox="0 0 165 100" xmlns:dc="http://purl.org/dc/elements/1.1/">
 <metadata id="metadata7">
  <rdf:RDF>
   <cc:Work rdf:about="">
    <dc:format>image/svg+xml</dc:format>
    <dc:type rdf:resource="http://purl.org/dc/dcmitype/StillImage"/>
    <dc:title/>
   </cc:Work>
  </rdf:RDF>
 </metadata>
 <g id="layer1" transform="translate(0 -952.36)">
  <g id="g5780" fill-rule="evenodd" transform="matrix(.29154 0 0 .40124 47.432 688.45)">
   <path id="path5712" d="m352.21 713.89c-5.2396-0.001-10.633 0.21679-13.281 0.21679l-0.01 0.01c-13.844 1.3125-33.786 3.9379-45.99 8.7402-4.4766 2.1775-2.4463 4.8032-1.2226 9.6055 4.4748 14.408 2.0294 10.049 26.463 4.3672 15.468-3.49 31.742-5.6812 48.031-6.1152 7.3241 0 6.1009-0.43162 3.666-6.9922-1.6256-3.0575-2.4437-7.4258-5.293-8.7383-2.0364-0.87241-7.1237-1.0923-12.363-1.0938z" fill="#2b347c"/>
   <path id="path5710" d="m-108.37 723.36c-0.48197 0.0005-0.9217 0.0195-1.3027 0.0566-12.738 1.2199-20.164 9.4298-19.975 24.439 0.1233 9.7171 4.0644 16.397 10.193 19.623 3.0035 1.5898 7.4466 2.7125 11.812 2.3887 2.8575-0.21446 9.133-1.5033 11.332-2.7344l0.10156-22.229c-1.2176-0.0125-7.8497-0.39457-8.3965 0.11914l-0.0664 15.881-3.8301 0.45508c-13.454 1.3036-17.651-23.255-4.3887-28.598 2.2894-0.92048 4.2989-0.7512 7.0566-0.70312 3.3947 0.0593 4.2423 1.0973 6.4531 1.541l1.9199-8.1387c-2.0815-1.2435-7.5364-2.105-10.91-2.1016z" fill="#2b347c"/>
   <path id="path5708" d="m368.22 735.52c-20.348 0-45.99 5.2361-64.713 10.484-4.4731 1.7448-9.3638 3.0577-14.244 4.8027-15.468 5.68-14.651 4.8026-10.176 23.145 1.6256 6.9933 2.4462 9.1718 10.176 6.1152 17.913-7.4279 38.259-12.663 58.205-17.465 39.887-9.6039 38.263-2.6247 32.562-17.91-2.8475-8.2923-1.624-9.1719-11.801-9.1719h-0.01z" fill="#fbc608"/>
   <path id="path5706" d="m6.0742-216.81c-1.0737 0.0173-2.178 0.17102-3.3027 0.47851-8.0829 2.2108-12.359 9.2985-11.119 19.996 1.0716 9.2955 7.4574 14.913 17.148 13.406 8.5851-1.3384 11.823-9.8942 11.221-20.016-0.44956-7.413-6.4312-13.986-13.947-13.865zm-0.56445 7.3047c0.15044-0.0105 0.30227-0.009 0.45703 0.004 0.82539 0.0706 1.7118 0.48936 2.6328 1.3711 2.144 2.0422 3.4621 8.9133 2.2891 12.488v-0.0137c-0.65835 1.9964-0.78276 3.6103-2.457 5.0312-1.6524 1.4109-4.4429 1.0153-5.7383-0.4414-2.4003-2.7136-3.0708-8.5689-1.9316-12.787 0.7375-2.7564 2.4915-5.4953 4.748-5.6524z" transform="translate(0 952.36)" fill="#2b347c"/>
   <path id="path5704" d="m-23.205-216.8c-4.957 0.27364-8.4075 4.885-8.7676 5.0469-0.27893-4.7202 1.7418-4.4694-7.5801-4.3379-0.51378 2.5805-0.04437 34.108-0.06641 41.936-0.01093 4.9466-1.5638 4.3379 7.3125 4.3379 2.1544 0 1.4512-0.82368 1.4512-6.8594 0-2.9044-0.10036-5.9872 0.04492-8.8672 2.1764 0.82528 2.4457 2.9975 7.0781 2.9629 14.748-0.0961 16.232-26.315 5.9277-32.721-1.9286-1.1982-3.748-1.5893-5.4004-1.498zm-0.81055 7.9863c0.2283 0.0152 0.45946 0.0507 0.69531 0.10742 5.9285 1.4344 5.8727 18.727-3.082 18.727-4.0635 0-4.0396-0.0463-3.9844-3.7617 0.03368-2.4747-0.10007-5.1767 0.11133-7.6152 0.30348-3.427 2.8352-7.6857 6.2598-7.457z" transform="translate(0 952.36)" fill="#2b347c"/>
   <path id="path5702" d="m-75.459 735.64c-6.6487 0.13159-6.7377 5.8631-7.8359 6.4453l-0.01172-0.0117-0.72461-5.4512-6.9121-0.26172 0.04492 32.779 8.6094-0.0605c0.57989-13.634-2.5912-23.838 6.2852-23.779l2.0098 0.0234-0.04492-9.6309c-0.5038-0.0442-0.97667-0.0615-1.4199-0.0527z" fill="#2b347c"/>
   <path id="path5700" d="m-68.201 735.97c-3.6973-0.0849-2.9805 1.0124-2.9805 7.7695 0 8.69-1.9977 23.448 7.1465 25.742 5.9389 1.4934 8.6609-1.7079 11.24-4.5879 1.0157 5.4014-0.34496 4.7067 7.8164 4.3594l-0.17969-32.971c-1.5738-0.10714-7.4789-0.44182-8.2832 0.32421-2.3004 2.9517 3.5958 25.286-4.8555 25.154-7.3867-0.11956-3.0776-19.039-4.5547-25.479-2.3972-0.12522-4.1191-0.28426-5.3496-0.3125z" fill="#2b347c"/>
   <path id="path5694" d="m374.79 761.08c-1.8308 0.0645-4.3736 0.71289-8.1875 1.5332-3.6673 0.87752-7.7279 1.7446-11.801 2.623-10.575 2.624-23.612 6.1146-34.189 9.1719-3.6673 0.8777-8.5461 1.7458-7.3242 7.4258l-0.0117-0.0117c0.81809 2.6225 2.8486 8.7373 4.0723 11.35 3.6673 11.35 2.8467 17.464 13.84 13.107l41.11-17.03c13.839-5.6798 13.839-3.9365 10.172-15.721-3.0764-9.9049-3.6559-12.589-7.6836-12.447z" fill="#ea2123"/>
   <path id="path5692" d="m256.63 774.9c-4.2669-0.14081-8.7025 3.3128-7.2578 9.5371 0.8181 3.4891 4.476 6.5476 8.5488 5.2344 3.6691-0.87771 6.1024-4.3676 5.2949-9.1699-0.82514-3.7262-3.6665-5.5052-6.5859-5.6016z" fill="#2b347c"/>
   <path id="path5690" d="m217.63-175.77c-3.6673 0.43252-8.5471 1.3116-11.395 3.0566v63.766c5.6984 3.0574 20.346 3.0574 26.045 0 6.9203-3.0559 11.396-8.7375 12.619-18.775 1.2219-10.05-0.81912-20.087-6.5176-24.457-3.253-2.1775-7.7277-3.4902-12.215-2.1777-2.0311 0.43252-4.0731 1.3108-5.2949 2.623-2.4327 1.3054-2.0387 2.1712-3.6445 3.9062-0.00006 0.001 0.00006 0.003 0 0.004l-0.0254 0.0254c0.01-0.0104 0.0158-0.0189 0.0254-0.0293 0.40206-8.2918 1.2221-19.65 0.40234-27.941zm8.7852 30.984c0.18849-0.008 0.37663-0.006 0.5625 0.004 1.7844 0.0943 3.4263 0.99332 4.4961 2.627 3.2495 4.3677 6.1026 30.571-13.844 25.336-0.81985-4.8023-0.001-17.031 1.2207-21.4 1.6705-4.3505 4.7371-6.4504 7.5644-6.5664z" transform="translate(0 952.36)" fill="#2b347c"/>
   <path id="path5688" d="m80.787 776.96c-3.2261 0.0606-7.5477 1.5391-9.6875 2.6875v65.066h11.396l-0.4043-67.689c-0.40662-0.0543-0.84381-0.0731-1.3047-0.0645z" fill="#2b347c"/>
   <path id="path5686" d="m-125.24-171.14c-5.3864-0.0382-10.85 0.40546-15.301 0.60156v62.887c13.023 0 26.864 2.177 35.008-6.1152 5.2949-5.6808 6.9211-16.596 1.2226-23.576-1.626-1.3132-2.8497-2.1801-4.4766-3.0586l-1.625-0.87891h-0.0117c10.577-5.2341 10.993-20.087 3.2539-25.768-4.3475-3.1957-11.145-4.0427-18.07-4.0918zm1.4883 10.084c5.418-0.0221 10.377 1.8599 10.074 8.4141-0.40359 7.4256-8.5465 9.1699-15.871 7.8574l0.4043-15.717c1.7301-0.32808 3.5866-0.54731 5.3926-0.55469zm-1.3184 25.5c6.5411-0.0226 12.869 2.4616 12.213 9.5625-0.40288 8.2915-8.9516 9.602-16.691 8.291v-17.463c1.4492-0.24624 2.969-0.38542 4.4785-0.39063z" transform="translate(0 952.36)" fill="#2b347c"/>
   <path id="path5682" d="m160.78 794.91c-0.4435-0.002-0.90698 0.0113-1.3906 0.0391-7.7296 0.4327-10.175 5.2342-13.426 9.1699l0.40234-7.8574 0.0352-0.0273c-4.0711 0-7.7288 1.3127-10.994 2.625v45.857c3.253 0 8.95 0.43254 11.803 0-0.40552-7.8597-0.40552-16.164 0-23.578 0-6.9933 2.848-13.541 7.7266-15.285 8.9514-2.6256 7.3242 9.1692 7.3242 15.719v23.145h11.396v-23.578c0-5.235 2.0311-10.051 4.4766-13.107 3.253-3.056 9.3651-3.9357 10.578 1.7441 0.81809 5.6831 0.40199 27.947 0 34.941 2.8475 0.43254 8.9494 0.43254 11.797 0 0-9.1721 1.2242-36.252-1.625-42.799-2.0294-4.8023-6.9213-7.8613-13.84-6.5488-6.5183 0.87771-8.9532 3.9367-12.217 8.7383v-0.43359l-0.82031-0.43359c-2.2926-4.9077-4.5741-8.2928-11.227-8.3301z" fill="#2b347c"/>
   <path id="path5680" d="m-79.477-157.43c-5.295 0-10.991 1.3118-15.871 3.0566l0.81641 10.471c2.0347-0.0105 6.517-3.4902 13.416-3.4902 8.1441 0 8.5469 4.37 8.5469 10.051h-1.2207c-30.117 0-30.118 29.692-12.619 30.572 3.6682 0.43254 6.5153-0.43325 9.3652-2.1797 3.2523-2.1775 3.6688-2.6226 5.6992-6.1133l-0.4043 7.4258h10.992l-0.40234-31.883c0-13.108-5.6982-17.91-17.914-17.91h-0.4043zm6.9082 28.393c-0.0032 4.795-1.6265 8.2828-3.666 10.471-2.4456 1.745-6.9216 3.4904-9.7715 0.87891-2.8485-3.4907-0.40214-7.8597 2.4473-9.1699 2.8492-1.745 7.3227-2.1797 10.99-2.1797z" transform="translate(0 952.36)" fill="#2b347c"/>
   <path id="path5678" d="m286.84-157.42c-7.3241 0-11.396 1.3109-17.912 3.0566l0.8164 10.457c2.8497-0.43877 7.3217-3.9328 14.234-3.4883 6.5183 0.4327 7.7305 3.0584 7.7305 10.051-8.1422 0.87979-11.8 0.43185-18.318 4.3691-4.0711 2.6225-8.1423 8.2918-7.3242 16.164 1.2218 6.5473 6.1012 10.483 13.021 10.051 6.5201 0 13.024-4.8016 13.844-8.293l-0.40234 7.4277h10.992c0-7.4272-0.00073-14.854-0.40625-22.281 0-13.973 2.4456-26.201-16.275-27.514zm3.4434 28.275c0.4892 0.0153 0.96736 0.0497 1.4258 0.10547-0.002 5.2274-1.2265 7.8483-3.668 10.471-7.7296 7.4257-16.278-3.9361-7.3281-8.291 2.1413-1.5289 6.1459-2.392 9.5703-2.2852z" transform="translate(0 952.36)" fill="#2b347c"/>
   <path id="path5676" d="m-27.795 795.07c-1.1495-0.0439-2.376 0.0469-3.6738 0.29297-8.9507 1.311-10.577 6.9933-12.619 8.7383v-7.8594c-4.0716 0-6.9196 0.87849-10.576 2.1777v46.291h11.811c0-13.107-2.8483-35.374 7.7285-38.863 9.3666-2.6256 7.7285 8.7378 7.7285 15.285v23.578h11.396c0-8.7396 1.2235-36.686-1.625-42.799-1.6497-3.9019-5.1886-6.6517-10.17-6.8418z" fill="#2b347c"/>
   <path id="path5674" d="m44.93-157.21c-11.82 0.28518-19.983 9.2878-21.457 21.164-2.4456 15.719 3.6696 27.947 17.096 29.26 14.65 1.3124 23.195-7.8592 25.236-20.965 1.2236-6.9946 0.40337-15.287-2.8496-20.521-2.8475-4.3698-7.3238-7.86-14.244-8.7383-1.2977-0.16352-2.5585-0.22872-3.7812-0.19921zm-0.0625 10.633c4.3371-0.0927 8.6543 3.5134 9.543 10.965 0.81809 7.8598-1.2232 15.285-6.9199 17.908-6.1022 2.179-11.399-1.7432-12.219-10.48h0.01172c-1.6027-12.038 4.0077-18.273 9.584-18.393z" transform="translate(0 952.36)" fill="#2b347c"/>
   <path id="path5672" d="m109.27-157.12c-12.438 0.0729-20.733 9.6984-21.879 22.393-0.81809 7.4264 0.40441 15.286 3.668 20.521 7.7296 11.795 36.221 12.229 39.486-14.852h-0.0137c1.6274-15.719-4.8801-27.08-18.721-27.947-0.86515-0.082-1.7118-0.12009-2.541-0.11523zm0.64454 10.678c12.074 0.075 11.749 26.691 0.67578 28.746-7.7296 1.745-10.995-4.8021-11.398-12.229-0.81986-7.8604 1.626-14.853 8.1426-16.164 0.91562-0.24607 1.7752-0.35851 2.5801-0.35352z" transform="translate(0 952.36)" fill="#2b347c"/>
   <path id="path5670" d="m10.674 795.48c-5.0248-0.093-9.5727 0.96444-13.639 4.2363-11.8 9.6046-12.216 35.374-0.4043 43.234 7.7282 4.8016 15.871 2.6224 23.611 0.43164l-0.81836-10.049c-0.8188-0.43255-1.6251-0.00089-3.252 0.43164-3.2528 1.3124-8.1454 1.3133-10.994-0.43164-6.5172-4.3683-6.5165-21.399 0.4043-25.768 5.295-3.9373 9.3671-0.43403 13.428 0l1.2188-10.904c-3.3557-0.65467-6.5404-1.1258-9.5547-1.1816z" fill="#2b347c"/>
   <path id="path5668" d="m262 795.8c-4.8786 0-7.7277-0.00088-12.215 0.43164v48.482h12.215v-48.914z" fill="#2b347c"/>
  </g>
  <text id="text4700" style="word-spacing:0px;letter-spacing:0px" xml:space="preserve" font-size="16.25px" y="1037.5129" x="11.490485" font-family="sans-serif" line-height="125%" fill="#000000"><tspan id="tspan4702" y="1037.5129" x="11.490485" font-family="sans-serif"/></text>
 </g>
</svg>
