<?xml version="1.0" encoding="UTF-8" standalone="no"?>
<!-- Created with Inkscape (http://www.inkscape.org/) -->
<svg id="svg2" xmlns:rdf="http://www.w3.org/1999/02/22-rdf-syntax-ns#" xmlns="http://www.w3.org/2000/svg" height="100" width="165" version="1.1" xmlns:cc="http://creativecommons.org/ns#" xmlns:dc="http://purl.org/dc/elements/1.1/" viewBox="0 0 165 100">
 <metadata id="metadata7">
  <rdf:RDF>
   <cc:Work rdf:about="">
    <dc:format>image/svg+xml</dc:format>
    <dc:type rdf:resource="http://purl.org/dc/dcmitype/StillImage"/>
    <dc:title/>
   </cc:Work>
  </rdf:RDF>
 </metadata>
 <g id="layer1" transform="translate(0 -952.36)">
  <g id="g10" transform="matrix(.43529 0 0 -.45698 -21.162 1030)">
   <g id="g12" transform="scale(.1)">
    <path id="path14" d="m-0.125 22.043v55.568h165.5v-55.568h-165.5zm44.313 20.516v2.918c-1.414 0.159-2.644 0.66-3.688 1.482-1.284 0.982-1.906 2.199-1.906 3.684 0 1.575 0.689 2.848 2.125 3.83 1 0.662 2.163 1.13 3.469 1.336v3.041c-2.763-0.092-5.108-0.8-7-2.079-2.22-1.484-3.344-3.502-3.344-6.128 0-2.399 1.02-4.324 3-5.809 1.893-1.439 4.32-2.184 7.344-2.275zm14.234 0.222h4.568v15.805h-4.568v-15.805zm30.892 0h4.44v3.174c2.98 0.411 5.177 1.302 6.636 2.695 1.24 1.188 1.85 2.627 1.83 4.317-0.05 2.032-0.72 3.471-2.01 4.316-1.279 0.868-3.324 1.303-6.13 1.303h-4.766v-15.805zm24.936 0h4.44v1.85h-4.44v-1.85zm14.27 0h4.44v15.805h-4.77c-2.8 0-4.87-0.435-6.15-1.303-1.29-0.891-1.96-2.329-1.98-4.316-0.05-1.668 0.56-3.106 1.82-4.317 1.46-1.393 3.66-2.284 6.64-2.695v-3.174zm6.2 0h4.42v1.85h-4.42v-1.85zm-83.478 3.106c1.936 0 3.438 0.617 4.547 1.873 1.023 1.188 1.523 2.717 1.523 4.613s-0.521 3.425-1.587 4.613c-1.088 1.256-2.59 1.873-4.483 1.873-1.914 0-3.416-0.617-4.525-1.873-1.023-1.165-1.545-2.717-1.545-4.613 0-1.919 0.501-3.448 1.523-4.613 1.066-1.256 2.589-1.873 4.547-1.873zm19.102 0c0.892 0 1.937 0.136 3.09 0.433l0.107 2.399-2.131-0.297c-1.348 0-2.023 0.319-2.023 0.935 0 0.503 0.37 0.938 1.109 1.303l1.74 0.707c0.805 0.343 1.393 0.732 1.807 1.166 0.544 0.571 0.805 1.303 0.805 2.194 0 1.347-0.522 2.352-1.588 3.06-1.023 0.708-2.525 1.072-4.461 1.072-1.414 0-2.828-0.182-4.242-0.525l0.109-2.559c0.87 0.32 1.935 0.481 3.219 0.481 1.675 0 2.523-0.548 2.523-1.621 0-0.526-0.325-0.984-1-1.395l-2.98-1.529c-1.197-0.731-1.784-1.599-1.762-2.627 0.044-0.891 0.522-1.622 1.414-2.193 1.022-0.663 2.458-1.004 4.264-1.004zm38.246 0c0.89 0 1.92 0.136 3.07 0.433l0.13 2.399c-0.65-0.206-1.37-0.297-2.16-0.297-1.32 0-2 0.319-2 0.935 0 0.503 0.37 0.938 1.11 1.303l1.74 0.707c0.81 0.343 1.42 0.732 1.81 1.166 0.54 0.594 0.8 1.326 0.8 2.194 0 1.347-0.52 2.352-1.58 3.06-1.03 0.708-2.53 1.072-4.46 1.072-1.42 0-2.83-0.182-4.25-0.525l0.11-2.559c0.87 0.32 1.94 0.481 3.22 0.481 1.68 0 2.53-0.548 2.53-1.621 0-0.526-0.33-0.984-1.01-1.395l-2.98-1.529c-1.19-0.731-1.78-1.599-1.76-2.627 0.05-0.891 0.52-1.622 1.42-2.193 1.02-0.663 2.45-1.004 4.26-1.004zm37.99 0c1.93 0 3.43 0.617 4.54 1.873 1 1.165 1.5 2.717 1.5 4.613 0 1.919-0.52 3.448-1.56 4.613-1.09 1.256-2.59 1.873-4.48 1.873-1.92 0-3.42-0.617-4.53-1.873-1.02-1.165-1.54-2.717-1.54-4.613 0-1.919 0.5-3.448 1.52-4.613 1.06-1.256 2.59-1.873 4.55-1.873zm-70.775 0.297h4.568v8.086c0 1.141 0.501 1.712 1.502 1.712 1.088 0 1.631-0.571 1.631-1.712v-8.086h4.437v12.402l-1.914-0.594c-1.066 0.571-2.457 0.867-4.154 0.867-1.914 0-3.437-0.387-4.547-1.164-1.022-0.708-1.523-1.645-1.523-2.787v-8.724zm38.445 0.068h4.44v12.334h-4.44v-12.334zm20.47 0h4.42v12.334h-4.42v-12.334zm-83.478 2.146c-1.088 0-1.633 1.326-1.633 3.975 0 2.581 0.545 3.883 1.633 3.883 0.544 0 0.935-0.32 1.153-0.983 0.239-0.571 0.349-1.552 0.349-2.9 0-2.649-0.501-3.975-1.502-3.975zm95.338 0c-1.09 0-1.63 1.326-1.63 3.975 0 2.581 0.54 3.883 1.63 3.883 0.54 0 0.93-0.32 1.15-0.983 0.22-0.593 0.33-1.552 0.33-2.9 0-2.649-0.5-3.975-1.48-3.975zm-52.826 0.434v7.172c1.24 0 2.132-0.159 2.697-0.479 0.805-0.456 1.195-1.302 1.195-2.558 0-1.074-0.39-2.032-1.173-2.877-0.762-0.845-1.653-1.258-2.719-1.258zm34.766 0c-1.07 0-1.98 0.413-2.76 1.258-0.77 0.845-1.14 1.803-1.14 2.877 0 1.256 0.4 2.102 1.2 2.558 0.57 0.32 1.46 0.479 2.7 0.479v-7.172z" transform="matrix(22.973 0 0 -21.883 486.14 1699.1)" fill="#0a1f62"/>
    <path id="path40" d="m1292 940.37h-302.38v-302.38l302.38 302.38" fill="#fffc00"/>
    <path id="path44" d="m836.16 792.43h135.44v135.44l-135.44-135.44" fill="#fffc00"/>
    <path id="path46" d="m823.17 626h148.44v147.94h-148.44v-147.94z" fill="#fffc00"/>
    <path id="path48" d="m971.6 608h-135.44l135.44-135.44v135.44" fill="#fffc00"/>
    <path id="path50" d="m823.17 595.01v-140.95l148.44-148.44v140.94l-148.44 148.44" fill="#fffc00"/>
    <path id="path52" d="m805.17 471.56v289.89l-144.94-144.95 144.94-144.94" fill="#fffc00"/>
    <path id="path54" d="m1292 292.63-302.38 302.38v-302.38h302.38" fill="#fffc00"/>
   </g>
  </g>
 </g>
</svg>
