<?xml version="1.0" encoding="UTF-8" standalone="no"?>
<!-- Created with Inkscape (http://www.inkscape.org/) -->
<svg id="svg2" xmlns:rdf="http://www.w3.org/1999/02/22-rdf-syntax-ns#" xmlns="http://www.w3.org/2000/svg" height="100" width="165" version="1.1" xmlns:cc="http://creativecommons.org/ns#" xmlns:dc="http://purl.org/dc/elements/1.1/" viewBox="0 0 165 100">
 <metadata id="metadata7">
  <rdf:RDF>
   <cc:Work rdf:about="">
    <dc:format>image/svg+xml</dc:format>
    <dc:type rdf:resource="http://purl.org/dc/dcmitype/StillImage"/>
    <dc:title/>
   </cc:Work>
  </rdf:RDF>
 </metadata>
 <g id="layer1" transform="translate(0 -952.36)">
  <rect id="rect3785" height="83.5" width="165" y="960.86" x="-2.387e-15" fill="#008000"/>
  <path id="path3073" d="m10.74 1005.3c0 1.9663-1.4813 3.562-3.3087 3.562-1.8278 0-3.3091-1.5957-3.3091-3.562 0-1.9695 1.4813-3.5639 3.3091-3.5639 1.8274 0 3.3087 1.5944 3.3087 3.5639" fill="#0f0"/>
  <path id="path3077" d="m16.523 983.2c0 1.9672-1.4817 3.5639-3.3099 3.5639-1.8274 0-3.3082-1.5967-3.3082-3.5639 0-1.9676 1.4808-3.563 3.3082-3.563 1.8282 0 3.3099 1.5953 3.3099 3.563" fill="#0f0"/>
  <path id="path3081" d="m34 969.61c0 1.9663-1.4821 3.5625-3.3095 3.5625-1.8278 0-3.3099-1.5962-3.3099-3.5625 0-1.9695 1.4821-3.5639 3.3099-3.5639 1.8274 0 3.3095 1.5944 3.3095 3.5639" fill="#0f0"/>
  <path id="path3085" d="m55.118 969.61c0 1.9663-1.4825 3.5625-3.3095 3.5625-1.8282 0-3.3095-1.5962-3.3095-3.5625 0-1.9695 1.4813-3.5639 3.3095-3.5639 1.827 0 3.3095 1.5944 3.3095 3.5639" fill="#0f0"/>
  <path id="path3089" d="m73.022 983.34c0 1.9672-1.4813 3.563-3.3095 3.563-1.8278 0-3.3082-1.5958-3.3082-3.563 0-1.9681 1.4804-3.563 3.3082-3.563 1.8282 0 3.3095 1.5949 3.3095 3.563" fill="#0f0"/>
  <path id="path3093" d="m79.447 1004.4c0 1.9676-1.4804 3.563-3.3082 3.563-1.8282 0-3.3087-1.5954-3.3087-3.563 0-1.969 1.4804-3.5639 3.3087-3.5639 1.8278 0 3.3082 1.5949 3.3082 3.5639" fill="#0f0"/>
  <path id="path3101" d="m23.4 989.24s-1.9167-3.7732-2.0386-6.1062c-0.06846 0.29453-0.5774-5.2153-0.18286-6.5624-0.03588 0.031-2.1038 2.8044-1.7739 7.5761 0.01831 0.39965 1.4345 5.8488 3.6347 5.8766 0.11982-0.16067 0.45965-0.21393 0.3607-0.784" fill="#0f0"/>
  <path id="path3105" d="m64.297 992.71s3.6184-1.7343 5.7447-1.681c-0.26051-0.094 4.782-0.20654 5.9593 0.31443-0.02417-0.0412-2.3171-2.4405-6.6716-2.4613-0.36323-0.0107-5.4483 1.0632-5.7034 3.387 0.13234 0.1394 0.14403 0.50106 0.67091 0.44086" fill="#0f0"/>
  <path id="path3109" d="m8.8975 996.98s1.05 4.8689 6.9609 8.2438c0.14987 0.072 3.2556 1.9956 7.4748 1.9719-0.04216 0.024 1.3711 0.047 2.0562-0.1903-0.0213 0 0.40663-0.048 0.36405-0.6891-0.02087 0.049-0.02087-0.4515-0.7064-0.4043-0.68594 0.047-3.9412-0.4506-6.6181-1.9723-0.1073 0-5.5051-2.8748-9.5314-6.9597" fill="#0f0"/>
  <path id="path3113" d="m66.589 1008.1s3.7934 1.3763 5.4174 2.9405c-0.14821-0.2537 3.8364 3.2916 4.4584 4.5058 0.0043-0.046-0.42626-3.3879-3.8013-6.5322-0.27764-0.2705-4.8375-3.1648-6.3459-1.7083 0.0263 0.1931-0.17075 0.4571 0.27137 0.7942" fill="#0f0"/>
  <path id="path3117" d="m8.7909 991.92s8.5887-0.35658 18.655 6.0576c0.17158 0.1427 4.4973 2.6133 8.0105 6.2712 0.04216 0.1436 0.59953 0.6655 0.59953 0.6655s0.34318 0.2384 0.81411-0.2376c-0.04259 0 0.25675-0.4756-0.34276-1.3314-0.60036-0.8544-3.17-6.4601-11.78-10.595-0.21376 0-10.58-5.3672-15.956-0.82985" fill="#0f0"/>
  <path id="path3121" d="m57.291 1006.5s5.5256 1.2475 11.437-2.672c0.22586-0.2134 3.1162-1.888 4.4643-5.8094 0.09732-0.1774 0.67593-1.9936 0.09732-3.7047 0.03301 0.0704-1.2212 3.5639-6.4248 7.4107-0.06346 0-1.8959 1.9603-8.5136 3.6705l-1.1252 0.1435s-0.60953 0.035-0.67508 0.427c-0.06303 0.3917 0.74021 0.5344 0.74021 0.5344" fill="#0f0"/>
  <path id="path3125" d="m22.08 973.97s0.03844 0.0139 0.11064 0.0477c0.87298 0.37787 6.7288 3.1555 10.941 11.249 0.06431 0.10604 1.8311 2.9591 3.0836 7.5543 0 0.0727 0.28932 1.5333 0.93227 1.4976 0.64252-0.0366 0.70681-1.3188 0.45047-2.9212-0.25759-1.6055-0.86797-7.3765-5.27-12.973-0.0313-0.14032-5.0751-6.2345-10.248-4.4544" fill="#0f0"/>
  <path id="path3129" d="m39.847 967.16s-2.6022 2.7086-3.2769 5.9858c0-0.10605-0.57822 1.8185-0.64336 4.0974-0.03088 0 0.28933 2.1038-0.2889 2.2094-0.57782 0.10834-1.3811-3.5625-0.44965-7.3047 0.93185-3.7403 3.0193-4.5961 4.6588-4.9879" fill="#0f0"/>
  <path id="path3133" d="m43.701 965.2s1.1569 2.8165 1.6712 7.5548c-0.03343 0 0.15948 2.7438-0.09647 4.3484-0.25634 1.6032 0.28933 1.6389 0.54567 1.6741 0.25759 0.0347 1.2867-1.1406 1.4132-4.7402 0.12902-3.5986-1.2203-6.5212-3.5337-8.8371" fill="#0f0"/>
  <path id="path3137" d="m57.034 975.15s-5.4613 2.6012-9.7327 10.619c-0.19288 0.17921-2.9893 6.0938-2.5713 11.582 0-0.072 0.06431 2.2806 0.06431 2.2806s0.03301 0.9248-0.45006 0.9614c-0.48096 0.036-1.2525-0.8197-1.8311-5.1314-0.2718-2.0279-0.1432-4.2044 0.19914-6.2086 0.42543-2.4923 1.2387-4.9082 2.5593-6.9917 1.5497-2.4405 3.5733-4.5614 6.0286-5.8326 0.70139-0.36213 1.4458-0.65481 2.1927-0.87755 0.56362-0.16858 1.1402-0.27741 1.7226-0.33157 0.2981-0.0305 0.59827-0.044 0.89844-0.0541 0.24298-0.006 0.70098 0.0898 0.92016-0.0147" fill="#0f0"/>
  <path id="path3141" d="m63.073 972.62c-0.03886-0.0973 1.2212 7.3765-2.0883 14.644-0.12859 0.17921-1.6048 4.3493-5.6537 8.1976-0.03216-0.0357-1.2533 0.96229-0.70599 1.5671 0.54524 0.60668 1.5406-0.0718 2.2474-0.56913 0.70766-0.49921 4.8839-3.03 7.0039-9.5868 0 0 2.2703-6.8759-0.80326-14.252" fill="#0f0"/>
  <path id="path3145" d="m70.966 1039.5s-0.90011-0.3802-0.85712-0.5701c-8.7503-4.7786-17.703-6.2563-23.303-6.6824-0.291-0.9178-1.9029-6.4035-1.1122-12.871-0.03301-0.2481 0.38577-5.5227 2.8907-11.153 0.22629-0.4275 1.1239-2.5655 1.5426-3.1717 0.41708-0.6052 0.77154-1.21 0.35278-1.5319-0.41666-0.32-5.7502 4.9897-7.4527 12.437-1.69 7.3903 0.06761 14.003 1.3185 16.158-1.9255-0.06-3.1066 0.01-3.236 0.021-1.0024 0-1.9885 0.035-2.9563 0.09 0.63793-0.9603 1.1147-2.3366 1.1147-2.3714 2.0566-6.8417-0.83499-11.368-0.86797-11.546-0.77028-1.4967-1.2199-1.0697-1.2199-1.0697-0.44965 0.2496-0.19289 0.9271-0.19289 0.9271s0.3532 1.2477 0.73855 3.6353c0.38577 2.3877 0.06474 4.384 0.06474 4.384-0.14321 3.5306-1.5627 5.7775-1.867 6.2206-13.071 1.2953-22.26 6.8566-22.26 6.8566-0.6321 0.7131 0.2029 0.569 0.2029 0.569s0.68595-0.2361 0.68595-0.1889c14.778-4.9888 26.387-4.466 26.387-4.466 15.677-0.5701 28.443 4.4188 29.427 4.6549 0.98612 0.239 0.60035-0.3315 0.60035-0.3315" fill="#0f0"/>
  <path id="path3564" d="m97.187 47.574c-3.0943-0.43034-4.9714-2.4891-5.4078-5.9311-0.2288-1.8046 0.01901-3.7819 0.64551-5.1503 1.0714-2.3402 2.9846-3.5183 5.895-3.6298 1.4865-0.05697 1.9024 0.0034 3.2237 0.46787l1.517 0.53328 0.0576 1.2233 0.0576 1.2233-0.43738-0.4109c-1.2616-1.1852-4.3498-1.9043-5.9335-1.3816-0.89393 0.29502-2.0982 1.3671-2.5662 2.2844-0.97573 1.9126-0.94574 4.9205 0.06839 6.8575 1.0654 2.035 2.6847 2.7589 5.4065 2.4172 0.75918-0.09533 1.4602-0.22268 1.5578-0.283s0.17746-1.0006 0.17746-2.0896v-1.9799h-1.6118-1.6119v-0.75852-0.75852h2.5646 2.5646l-0.052 3.1719-0.052 3.1719-1.517 0.50485c-1.79 0.5957-2.9972 0.7332-4.5461 0.5178z" transform="translate(0 952.36)" fill="#fff"/>
  <path id="path3566" d="m105.62 42.008v-5.4044h0.84294 0.84294l0.0578 0.8825 0.0578 0.8825 0.56889-0.47656c0.84108-0.70458 1.7158-1.1054 2.5146-1.1521l0.70912-0.04151 0.0569 0.87805 0.0569 0.87805-1.22 0.07768c-0.92399 0.05883-1.4093 0.20301-2.0006 0.59427l-0.78063 0.51659v3.8847 3.8847h-0.85333-0.85333v-5.4044z" transform="translate(0 952.36)" fill="#fff"/>
  <path id="path3568" d="m115.31 47.609c-0.8881-0.21901-1.5402-0.74972-2.0014-1.6289-0.35702-0.68057-0.39769-1.1355-0.4525-5.0618l-0.0602-4.3141h0.86616 0.86615l0.001 3.7452c0.001 3.9927 0.14814 4.9848 0.80702 5.4463 0.58799 0.41184 1.9121 0.36012 2.8498-0.11132 1.5398-0.77406 1.4621-0.50665 1.4621-5.0325v-4.0476h0.85333 0.85333v5.4044 5.4044h-0.85333c-0.82173 0-0.85333-0.02107-0.85333-0.56889 0-0.31289-0.0447-0.56889-0.0994-0.56889s-0.53357 0.29867-1.0642 0.6637c-0.53067 0.36504-1.0726 0.6637-1.2043 0.6637s-0.48479 0.03696-0.78464 0.08213c-0.29986 0.04517-0.83338 0.01107-1.1856-0.0758z" transform="translate(0 952.36)" fill="#fff"/>
  <path id="path3570" d="m124.01 44v-7.3956h0.85333c0.82173 0 0.85334 0.02107 0.85334 0.56889 0 0.31289 0.037 0.56889 0.0822 0.56889s0.52835-0.27733 1.0736-0.6163c0.87792-0.54574 1.147-0.6163 2.3503-0.6163 1.1893 0 1.444 0.0649 2.0406 0.51991 0.38505 0.2937 0.91493 0.99501 1.2178 1.6119 0.48824 0.99428 0.53526 1.27 0.5257 3.0831-0.008 1.4569-0.0991 2.1946-0.34063 2.7496-0.94893 2.1803-2.4664 3.2386-4.438 3.095-0.59918-0.04363-1.3799-0.22452-1.7348-0.40198-0.35499-0.17746-0.67499-0.32265-0.71111-0.32265-0.0361 0-0.0657 1.024-0.0657 2.2756v2.2756h-0.85334-0.85333v-7.3956zm5.844 1.7009c0.97311-0.59329 1.4432-1.8267 1.4432-3.7868 0-2.1047-0.48483-3.2844-1.5291-3.7207-0.93253-0.38964-2.0467-0.21383-3.1735 0.50074l-0.87796 0.55679v3.1128 3.1128l0.71111 0.29496c1.0405 0.4316 2.6572 0.39832 3.4262-0.07053z" transform="translate(0 952.36)" fill="#fff"/>
  <path id="path3572" d="m137.82 47.537c-2.0873-0.58358-3.2116-2.2839-3.3442-5.0576-0.0995-2.0804 0.25745-3.3981 1.2274-4.5312 0.93496-1.0923 1.9224-1.5253 3.4783-1.5253 1.5548 0 2.5433 0.4329 3.4756 1.5221 0.86755 1.0135 1.2651 2.2906 1.2651 4.0637 0 3.3537-1.5262 5.3838-4.2667 5.6755-0.53248 0.05668-1.3372-0.0078-1.8355-0.14716zm2.8978-1.6908c1.0634-0.70831 1.4029-1.6368 1.4029-3.8375 0-2.3621-0.34968-3.1932-1.6156-3.84-1.0506-0.53677-1.5967-0.53677-2.6473 0-1.2659 0.64677-1.6156 1.4779-1.6156 3.84 0 1.5179 0.0757 2.0472 0.37926 2.6523 0.51976 1.0361 1.4367 1.6144 2.56 1.6144 0.61042 0 1.0955-0.1355 1.5364-0.42917z" transform="translate(0 952.36)" fill="#fff"/>
  <path id="path3574" d="m79.641 70.074v-6.5422h1.0321 1.0321l0.05831 0.76788 0.05831 0.76788 0.6637-0.504c1.1157-0.84726 2.0998-1.2127 3.2772-1.2172 1.8039-0.0069 2.9501 0.73083 3.6767 2.3662 0.28906 0.6506 0.34674 1.4802 0.40537 5.8311l0.06836 5.0726h-1.059-1.059l-0.0083-4.3141c-0.0097-5.0852-0.11242-5.8107-0.9251-6.5368-0.9853-0.88037-2.821-0.63156-4.5797 0.62073l-0.55511 0.39528v4.9175 4.9175h-1.043-1.043v-6.5422z" transform="translate(0 952.36)" fill="#fff"/>
  <path id="path3576" d="m96.423 76.902c-0.1043-0.03479-0.42273-0.11462-0.70763-0.1774-0.7307-0.16101-1.8498-1.2012-2.2572-2.0981-0.3066-0.67489-0.34579-1.3397-0.34949-5.9276l-0.0042-5.1674h0.92947 0.92947l0.06965 4.883c0.07317 5.1297 0.1265 5.463 0.98545 6.1587 0.86016 0.69676 3.0272 0.34288 4.4239-0.72241l0.6265-0.47786v-4.9207-4.9207h1.043 1.043v6.5422 6.5422h-1.043-1.043v-0.75262-0.75262l-1.0559 0.73969c-1.1656 0.81654-2.8317 1.3046-3.59 1.0516z" transform="translate(0 952.36)" fill="#fff"/>
  <path id="path3578" d="m108.45 76.372c-0.62636-0.32517-0.95431-0.66963-1.309-1.3748-0.45664-0.90801-0.47559-1.0952-0.54148-5.3498l-0.0683-4.4089h-0.6437c-0.63649 0-0.6437-0.0096-0.6437-0.85333 0-0.84882 0.004-0.85333 0.6637-0.85333h0.6637v-1.8015-1.8015h1.043 1.043v1.8015 1.8015h2.0859 2.0859v0.85333 0.85333h-2.0859-2.0859l0.001 3.84c0.001 4.0176 0.13266 4.9812 0.75716 5.5464 0.41674 0.37714 1.7694 0.4846 2.7973 0.22224l0.6163-0.15729v0.85949c0 0.83166-0.023 0.86588-0.71112 1.057-1.2316 0.34204-2.7439 0.24545-3.668-0.23428z" transform="translate(0 952.36)" fill="#fff"/>
  <path id="path3580" d="m114.53 70.074v-6.5422h1.043 1.043v1.0417 1.0417l0.90074-0.69007c1.1743-0.89962 1.9273-1.2037 2.9806-1.2037h0.85942v1.043 1.043h-1.1254c-1.273 0-1.8824 0.18667-2.9042 0.88972l-0.71112 0.48927v4.715 4.715h-1.043-1.043v-6.5422z" transform="translate(0 952.36)" fill="#fff"/>
  <path id="path3582" d="m126.18 76.469c-1.4729-0.525-2.4371-1.396-3.1514-2.8469-0.59487-1.2084-0.62291-1.3637-0.62291-3.45 0-1.9961 0.0459-2.283 0.53139-3.3225 1.0523-2.253 2.565-3.3289 4.873-3.4656 1.8578-0.11008 2.8731 0.18057 3.8831 1.1115 1.0561 0.9735 1.5707 2.2002 1.7314 4.1276l0.12885 1.545h-4.6049-4.6049l0.10515 1.0188c0.36354 3.5224 3.6979 4.9323 7.3627 3.1132l1.3082-0.64935v1.0895 1.0895l-1.0904 0.42356c-1.5243 0.59211-4.487 0.70141-5.8494 0.21579zm5.1672-8.6746c-0.23114-1.6863-1.0528-2.5735-2.6148-2.8233-2.0401-0.32623-3.8436 0.98246-4.2663 3.0959l-0.11681 0.58403h3.5576 3.5576l-0.11741-0.8566z" transform="translate(0 952.36)" fill="#fff"/>
  <path id="path3584" d="m137.38 76.667c-0.20859-0.05203-0.82726-0.26159-1.3748-0.4657l-0.99555-0.3711v-1.1242c0-0.61828 0.0445-1.1242 0.0989-1.1242s0.41705 0.21002 0.80592 0.4667c2.0409 1.3471 5.4066 1.4193 6.0962 0.13071 0.25867-0.48333 0.26419-1.4597 0.0109-1.9329-0.27547-0.51472-0.70787-0.7056-2.7369-1.2082-3.1437-0.77872-4.1125-1.6777-4.1125-3.8161 0-1.8425 1.1622-3.2082 3.1576-3.7107 1.1259-0.28351 3.314-0.1196 4.5495 0.34079l0.94815 0.35331 0.0574 1.1044c0.0316 0.60743-0.0111 1.0704-0.0948 1.0288-1.9039-0.94592-2.5729-1.1857-3.4981-1.2539-2.0697-0.15246-3.0812 0.55418-2.971 2.0755 0.0779 1.0751 0.64002 1.4494 3.0482 2.0298 2.0262 0.48835 2.8421 0.93631 3.5176 1.9312 0.38416 0.56579 0.43775 0.83905 0.37817 1.9285-0.0584 1.0682-0.16015 1.3837-0.64221 1.9911-0.31504 0.39699-1.0318 0.95647-1.5928 1.2433-0.89392 0.457-1.221 0.51876-2.6453 0.49948-0.89389-0.0121-1.7959-0.06457-2.0045-0.11659z" transform="translate(0 952.36)" fill="#fff"/>
  <path id="path3586" d="m148.39 76.718c-1.0557-0.38431-1.652-0.87164-2.1444-1.7527-1.1614-2.078-0.48719-4.6805 1.4741-5.6898 0.91824-0.47253 2.8859-0.90813 4.9949-1.1058l1.3014-0.12198-0.12231-0.76488c-0.16714-1.0452-0.39635-1.4162-1.1114-1.7985-0.85815-0.45888-3.2718-0.4142-4.8299 0.08942l-1.1852 0.38306v-1.0158-1.0158l0.80593-0.2367c0.44326-0.13018 1.8299-0.24014 3.0815-0.24435 2.0202-0.0068 2.378 0.04282 3.1888 0.442 0.5733 0.28226 1.1027 0.73576 1.4222 1.2183l0.50897 0.76863 0.0557 5.3714 0.0557 5.3714h-0.95647-0.95648v-0.6637c0-0.76533-0.13897-0.81248-0.81875-0.27776-1.3107 1.031-3.4885 1.508-4.7644 1.0436zm3.2257-1.8982c0.51434-0.15345 1.2552-0.54366 1.6463-0.86714l0.71111-0.58814v-1.7877-1.7877h-0.67479c-1.2118 0-3.3868 0.41387-4.1106 0.78219-0.92713 0.47181-1.346 1.1431-1.346 2.1571 0 0.99627 0.44817 1.7394 1.2627 2.0937 0.78204 0.34017 1.3651 0.33964 2.5113-0.0023z" transform="translate(0 952.36)" fill="#fff"/>
 </g>
</svg>
