<?xml version="1.0" encoding="UTF-8" standalone="no"?>
<!-- Created with Inkscape (http://www.inkscape.org/) -->
<svg id="svg2" xmlns:rdf="http://www.w3.org/1999/02/22-rdf-syntax-ns#" xmlns="http://www.w3.org/2000/svg" height="100" width="165" version="1.1" xmlns:cc="http://creativecommons.org/ns#" xmlns:dc="http://purl.org/dc/elements/1.1/" viewBox="0 0 165 100">
 <metadata id="metadata7">
  <rdf:RDF>
   <cc:Work rdf:about="">
    <dc:format>image/svg+xml</dc:format>
    <dc:type rdf:resource="http://purl.org/dc/dcmitype/StillImage"/>
    <dc:title/>
   </cc:Work>
  </rdf:RDF>
 </metadata>
 <g id="layer1" transform="translate(0 -952.36)">
  <path id="rect4838" fill="#005dab" d="m-0.17773 966.04v72.68h165.18v-72.68h-165.18zm119.5 6.66c0.0991-0.1015 2.5481 1.2728 5.4414 3.0566 4.986 3.0741 27.455 17.304 27.791 17.6 0.57292 0.50454-0.93439-0.10955-3.1914-1.2988-1.4598-0.76926-6.951-3.456-12.201-5.9727-13.386-6.4165-15.433-7.5135-16.529-8.8457-0.87648-1.0656-1.7499-4.0896-1.3105-4.5391zm-1.3418 9.1289 2.0391 0.82227c1.1225 0.45283 9.6355 3.7918 18.916 7.4199s16.944 6.6685 17.031 6.7559c0.0868 0.0875-0.0972 0.1582-0.41016 0.1582-0.31281 0-0.64699-0.0784-0.74219-0.17578-0.0953-0.0975-7.5704-2.1774-16.611-4.6211-9.7257-2.6287-16.833-4.7433-17.404-5.1797-1.3843-1.0573-2.2932-2.4366-2.5742-3.9043l-0.24414-1.2754zm-86.379 6.0606-0.19531 1.3262c-0.10807 0.72914-0.45691 1.6421-0.77539 2.0274-1.1931 1.4434-2.1513 1.6914-6.5586 1.6914-5.7581 0-7.1211 0.67778-7.1211 3.541 0 2.4472 0.71408 2.9596 6.6504 4.791 4.6441 1.4326 6.0563 2.1247 7.3164 3.584 1.2063 1.397 1.6109 2.7545 1.6191 5.4336 0.008 2.7177-0.30457 3.7198-1.707 5.4687-2.1715 2.7077-4.6935 3.3848-12.645 3.3848h-5.4395v-2.4805-2.4765h5.6387c5.8225 0 6.9195-0.2034 8.1875-1.5039 1.3445-1.379 0.81873-4.579-0.91992-5.5977-0.35449-0.2077-2.4518-0.9208-4.6621-1.584-4.7467-1.4244-6.1654-2.1567-7.5684-3.9062-1.3587-1.6941-1.6445-2.5921-1.6445-5.1524 0-2.5625 0.76539-4.3918 2.4961-5.959 2.0404-1.8476 3.7203-2.2183 10.893-2.4121l6.4355-0.17578zm22.543 0.0527 1.2129 0.23437c0.66705 0.12737 1.5517 0.46453 1.9668 0.75 1.5367 1.0566 1.6719 2.1341 1.6719 13.393 0 9.6088-0.05078 10.58-0.61719 11.785-1.9908 4.2373-7.8808 6.3757-13.465 4.8906-2.3995-0.6383-4.3573-1.9598-5.4707-3.6953l-0.98438-1.5351-0.0918-12.889-0.09375-12.887 1.0625 0.20508c1.3375 0.26003 2.566 1.183 3.0703 2.3066 0.25751 0.57379 0.46364 4.2258 0.60938 10.768 0.24255 10.888 0.32714 11.364 2.1934 12.334 2.7446 1.426 6.0228 1.0035 7.8652-1.0136l1.0703-1.1719v-11.736-11.738zm25.447 0.0352c4.1018 0 4.1844 0.0653 3.2031 2.6367-0.63519 1.6644-1.4936 2.0579-5.0977 2.3359-4.5786 0.35324-6.0961 1.5369-6.7324 5.2539-0.17956 1.0492-0.32617 6.1881-0.32617 11.42v9.5137h-2.2637-2.2637v-11.115c0-12.63 0.13998-13.603 2.3574-16.361 2.2846-2.8415 4.831-3.6836 11.123-3.6836zm29.049 0.17578-0.01 2.2109c-0.006 1.2171-0.0434 8.2062-0.082 15.531l-0.0703 13.318-1.2129-0.2364c-1.5774-0.3055-2.753-1.2539-3.1406-2.5351-0.17075-0.5644-0.34527-1.0843-0.38867-1.1563-0.0432-0.072-0.55818 0.4217-1.1445 1.0996-1.8606 2.1511-3.5583 2.8707-7.0488 2.9825-1.6899 0.054-3.4389-0.032-3.8848-0.1895-3.6068-1.2875-6.0665-4.1222-7.4648-8.6015-0.95828-3.0696-0.97732-9.0333-0.03906-12.244 1.3098-4.4823 4.0011-7.724 7.748-9.334 1.7328-0.74447 2.3702-0.80272 9.2988-0.82422l7.4394-0.0215zm12.564 4.3086c0.10765 0.003 0.23523 0.0216 0.38281 0.0566 0.46922 0.1112 8.6164 1.5992 18.105 3.3047 9.489 1.7055 17.509 3.1675 17.822 3.25 1.3793 0.3646-4.6429 0.071-18.201-0.8887-8.5187-0.60312-14.933-1.2247-15.4-1.4902-1.1108-0.63078-3.1797-3.1033-3.1797-3.8008 0-0.29879 0.14773-0.43964 0.4707-0.43164zm-21.826 0.47265c-4.7754 0-6.1667 0.41131-7.9434 2.3535-1.9853 2.1703-2.8217 5.3725-2.6172 10.023 0.16836 3.8279 0.83344 5.8603 2.4824 7.5899 1.6969 1.7799 4.5787 2.4212 7.2422 1.6113 1.5938-0.4845 3.2558-2.1112 4.0918-4.002 0.61592-1.3928 0.66992-2.1483 0.66992-9.5449v-8.0312h-3.9258zm53.99 8.4258c2.5381 0 4.0613 0.02 3.957 0.072-0.29467 0.1471-24.472 3.7264-24.92 3.6894-0.0587-0.01-0.67535-0.2958-1.3711-0.6465-1.2065-0.6082-2.6333-2.2743-2.2676-2.6484 0.0951-0.097 6.6444-0.2696 14.555-0.3809 3.9551-0.055 7.5088-0.088 10.047-0.088zm1.9356 2.6347c0.0382 0.001 0.0497 0.01 0.0332 0.027-0.35353 0.3617-15.261 6.838-16.863 7.3262-0.78132 0.2381-1.2633 0.1275-1.9922-0.459-1.4956-1.2034-1.1896-1.7307 1.4102-2.4394 10.142-2.7648 16.833-4.4761 17.412-4.4571zm-1.875 3.4199c0.0187 0.019-0.008 0.068-0.0859 0.1504-1.5476 1.6361-13.027 11.143-13.455 11.143-0.27101 0-0.59606-0.2758-0.72265-0.6133-0.6124-1.6327-0.23174-2.0126 5.5508-5.5273 3.1804-1.9331 6.5517-3.9846 7.4902-4.5586 0.70385-0.4305 1.1667-0.6498 1.2227-0.5938zm-5.1211 8.0957c0.0508-0.028 0.0725-0.028 0.0625 0-0.16745 0.4754-9.4122 10.955-9.6641 10.955-0.0914 0-0.0514-0.4799 0.0879-1.0664 0.1393-0.5868 0.35506-1.3604 0.48047-1.7168 0.12545-0.3564 2.2558-2.4338 4.7344-4.6172 2.1687-1.9103 3.9431-3.3732 4.2988-3.5567zm-13.248 6.0879c0.13543 0-0.50846 0.4153-1.584 1.002-5.3216 2.9031-15.835 5.5328-18.998 4.7519-1.2048-0.2973-3.2246-1.3345-3.2246-1.6562 0-0.1615 1.7491-0.419 3.8867-0.5723 5.6356-0.4043 15.601-2.1658 19.812-3.5019 0.0521-0.013 0.088-0.024 0.10743-0.024zm1.1621 2.0137c0.25329 0.085-0.61149 1.0336-2.2812 2.291-5.82 4.383-13.302 6.7064-16.24 5.043l-0.94726-0.5371 1.1367-0.2559c7.5365-1.6927 13.884-3.8931 16.969-5.8828 0.57544-0.3712 0.96489-0.5746 1.1855-0.6406 0.0827-0.025 0.14155-0.03 0.17774-0.018zm-0.47657 3.7324c0.0803 0.082-0.33902 0.9316-0.93359 1.8907-0.80685 1.3015-1.5702 1.9601-3.0059 2.5918-1.9867 0.8742-3.3454 1.051-4.1328 0.539-0.28113-0.183 0.36845-0.6227 1.707-1.1562 1.188-0.4738 3.073-1.5697 4.1894-2.4375 1.1165-0.8678 2.0955-1.5098 2.1758-1.4278z"/>
 </g>
</svg>