<?xml version="1.0" encoding="UTF-8" standalone="no"?>
<!-- Created with Inkscape (http://www.inkscape.org/) -->

<svg
   xmlns:dc="http://purl.org/dc/elements/1.1/"
   xmlns:cc="http://creativecommons.org/ns#"
   xmlns:rdf="http://www.w3.org/1999/02/22-rdf-syntax-ns#"
   xmlns:svg="http://www.w3.org/2000/svg"
   xmlns="http://www.w3.org/2000/svg"
   xmlns:sodipodi="http://sodipodi.sourceforge.net/DTD/sodipodi-0.dtd"
   xmlns:inkscape="http://www.inkscape.org/namespaces/inkscape"
   width="150mm"
   height="50mm"
   viewBox="0 0 150 50"
   version="1.1"
   id="svg8"
   inkscape:version="0.92.1 r15371"
   sodipodi:docname="wa-logo2.svg">
  <defs
     id="defs2" />
  <sodipodi:namedview
     id="base"
     pagecolor="#ffffff"
     bordercolor="#666666"
     borderopacity="1.0"
     inkscape:pageopacity="0.0"
     inkscape:pageshadow="2"
     inkscape:zoom="1.4"
     inkscape:cx="368.85348"
     inkscape:cy="142.08963"
     inkscape:document-units="mm"
     inkscape:current-layer="layer1"
     showgrid="false"
     inkscape:window-width="1600"
     inkscape:window-height="821"
     inkscape:window-x="-9"
     inkscape:window-y="-9"
     inkscape:window-maximized="1" />
  <metadata
     id="metadata5">
    <rdf:RDF>
      <cc:Work
         rdf:about="">
        <dc:format>image/svg+xml</dc:format>
        <dc:type
           rdf:resource="http://purl.org/dc/dcmitype/StillImage" />
        <dc:title></dc:title>
      </cc:Work>
    </rdf:RDF>
  </metadata>
  <g
     inkscape:label="Capa 1"
     inkscape:groupmode="layer"
     id="layer1"
     transform="translate(0,-247)">
    <path
       inkscape:connector-curvature="0"
       style="fill:#24b0e6;fill-opacity:1;stroke-width:0.06503883"
       d="m 4.5967448,258.86229 v 1.80503 H 17.080305 v -1.80503 z m 14.2522602,0 v 1.80503 h 17.789631 c 0,0 -1.817111,-1.80503 -4.223816,-1.80503 z m 21.279419,0 v 1.80503 h 10.762469 l -0.638837,-1.80503 z m 18.478575,0 -0.638831,1.80503 h 10.66476 v -1.80503 z m -54.0102542,3.51035 v 1.80504 H 17.080305 v -1.80504 z m 14.2522602,0.003 v 1.80247 h 19.853943 c 0,0 -0.231883,-1.38923 -0.636329,-1.80247 z m 21.279419,0 v 1.80247 h 11.942432 l -0.591236,-1.80247 z m 17.200907,0 -0.591235,1.80247 h 11.894832 v -1.80247 z m -49.1450962,3.50765 v 1.8076 h 5.4062902 v -1.8076 z m 14.2522502,0 v 1.8076 h 5.40629 v -1.8076 z m 10.664769,0 v 1.8076 h 5.406285 c 0,0 0.343217,-0.95459 0.343217,-1.8076 z m 10.614659,0 v 1.8076 h 9.585012 l -0.638834,-1.8076 z m 12.435961,0 -0.641334,1.8076 h 9.6326 v -1.8076 z m -47.9676392,3.51293 v 1.80502 h 5.4062902 v -1.80502 z m 14.2522502,0 v 1.80502 h 13.808833 c 0,0 1.15513,-0.92618 1.523178,-1.80502 z m 21.279428,0 v 1.80502 h 5.406286 v -1.00478 l 0.343218,1.00478 h 9.903175 l 0.368265,-1.00478 v 1.00478 h 5.406283 v -1.80502 H 54.994457 l -0.538624,1.5289 -0.541128,-1.5289 z m -35.5316782,3.51034 v 1.80504 h 5.4062902 v -1.80504 z m 14.2522502,0 v 1.80504 h 15.332011 c -0.368128,-0.87599 -1.523178,-1.80504 -1.523178,-1.80504 z m 21.279428,0 v 1.80504 h 5.406286 v -1.80504 z m 6.388335,0 0.653864,1.80504 h 7.425502 l 0.621299,-1.80504 z m 9.632609,0 v 1.80504 h 5.406283 v -1.80504 z m -51.5526222,3.51035 v 1.80504 h 5.4062902 v -1.80504 z m 14.2522502,0 v 1.80504 h 5.40629 v -1.80504 z m 10.664769,0 v 1.80504 h 5.749502 c 3e-6,-0.85186 -0.343217,-1.80504 -0.343217,-1.80504 z m 10.614659,0 v 1.80504 h 5.406286 v -1.80504 z m 7.615897,0 0.633826,1.80504 h 4.977891 l 0.638831,-1.80504 z m 8.405047,0 v 1.80504 h 5.406283 v -1.80504 z m -55.0424122,3.51013 v 1.80759 H 17.178015 v -1.80759 z m 14.1545602,0 v 1.80759 h 19.217614 c 0.404446,-0.41391 0.636329,-1.80759 0.636329,-1.80759 z m 21.377122,0 v 1.80759 h 8.896072 v -1.80759 z m 12.335751,0 0.651358,1.80759 h 2.532786 l 0.611278,-1.80759 z m 7.174979,0 v 1.80759 h 8.993775 v -1.80759 z m -55.0424122,3.5129 v 1.80504 H 17.178015 v -1.80504 z m 14.1545602,0 v 1.80248 H 32.41482 c 2.406705,0 4.223816,-1.80248 4.223816,-1.80248 z m 21.377122,0 v 1.80504 h 8.896072 v -1.80504 z m 13.570831,0 0.626307,1.79992 0.10772,0.003 0.636333,-1.80248 z m 5.939899,0 v 1.80504 h 8.993775 v -1.80504 z"
       id="path3984" />
    <path
       style="fill:#008000;fill-opacity:1;stroke-width:0.26756865"
       d="m 115.97436,286.04232 c 0.0924,-0.32644 2.6177,-6.62891 5.61174,-14.00549 l 5.44369,-13.412 h 4.75649 4.75649 l 5.70432,13.99796 5.70432,13.99794 h -3.8783 -3.87832 l -0.93059,-2.60427 -0.93058,-2.60426 h -6.4996 -6.49959 l -0.97259,2.53915 -0.97259,2.53918 -3.79146,0.0728 -3.79146,0.0727 z m 20.07597,-9.80004 c 0.13121,-0.20115 -3.78875,-10.90025 -4.10258,-11.19755 -0.0733,-0.0697 -0.18011,-0.0776 -0.23736,-0.0178 -0.16697,0.17405 -3.95899,9.93263 -4.16596,10.72091 l -0.18806,0.71616 h 4.27463 c 2.35104,0 4.33975,-0.0998 4.41933,-0.22179 z"
       id="path3755"
       inkscape:connector-curvature="0" />
    <path
       style="fill:#034265;fill-opacity:1;stroke-width:0.44280592"
       d="m 80.518533,285.78646 c -0.328196,-1.21864 -5.529671,-26.60318 -5.463365,-26.66267 0.340917,-0.30588 4.4717,-0.53458 4.800995,-0.26581 0.237023,0.19346 1.38,4.6675 2.539958,9.94231 1.159958,5.27483 2.281149,9.81793 2.49155,10.09579 0.396126,0.52316 1.70074,-4.5504 3.777458,-14.69034 l 1.05484,-5.15041 2.7142,-0.30052 c 1.492804,-0.16528 2.829785,-0.13751 2.97107,0.0617 0.141284,0.19921 1.156171,4.59856 2.255298,9.77632 1.099135,5.17777 2.141677,9.75261 2.316756,10.16634 0.466587,1.10254 0.976747,-0.62803 3.266897,-11.08213 l 1.97317,-9.00721 2.58007,-0.15046 c 1.41903,-0.0828 2.58755,0.0317 2.59668,0.25443 0.009,0.2227 -1.24794,6.53042 -2.79354,14.01716 l -2.81018,13.61225 -3.53823,5e-5 c -3.035782,5e-5 -3.566953,-0.1264 -3.740589,-0.89046 -0.111307,-0.48979 -0.824728,-3.86743 -1.585385,-7.50585 -1.908127,-9.1271 -2.888395,-12.97621 -3.30472,-12.97621 -0.194644,0 -0.357839,0.0572 -0.362645,0.12721 -0.0051,0.0701 -1.02396,4.82155 -2.264772,10.55907 l -2.256013,10.43186 -3.521509,0.14645 c -2.604837,0.1083 -3.567457,-0.0241 -3.697994,-0.50888 z"
       id="path3875"
       inkscape:connector-curvature="0" />
    <path
       style="fill:#8cc640;fill-opacity:1;stroke-width:0.52414829"
       d="m 114.73969,280.14022 c 1.41546,-3.63434 3.90592,-9.98251 5.53434,-14.10704 l 2.96077,-7.49918 4.72559,0.01 4.72559,0.01 3.31734,8.40795 c 1.82453,4.62436 4.31642,10.95615 5.53753,14.07058 l 2.22018,5.66264 h -3.65545 -3.65546 l -0.89332,-2.7548 -0.89332,-2.75478 h -6.67704 -6.67704 l -1.05051,2.60174 -1.05052,2.60175 -3.52113,0.18004 -3.52112,0.18003 z m 16.72866,-3.76107 c 1.02408,-0.39726 1.02198,-0.41008 -0.99482,-6.06075 -1.11159,-3.11445 -2.22772,-5.66263 -2.48028,-5.66263 -0.45858,0 -4.5072,10.43695 -4.5072,11.61912 0,0.68614 6.27121,0.76805 7.9823,0.10426 z"
       id="path3860"
       inkscape:connector-curvature="0" />
    <path
       style="fill:#24b0e6;fill-opacity:1;stroke-width:0.51034659"
       d="m 80.723903,272.57029 -2.923756,-13.78362 2.66826,-0.17452 c 1.467547,-0.096 2.747571,-0.072 2.84451,0.0534 0.09694,0.12535 1.085642,4.38251 2.197112,9.46032 2.38719,10.90599 2.399722,10.9536 2.762025,10.48506 0.154974,-0.20041 1.231201,-4.74286 2.391617,-10.09432 l 2.109849,-9.72994 2.941885,-0.17039 2.941895,-0.17039 0.468192,1.91148 c 0.257506,1.05131 1.191238,5.30659 2.074958,9.45618 2.09354,9.83041 1.99788,9.50168 2.44893,8.41527 0.32361,-0.77949 1.74666,-6.89734 3.81362,-16.39524 l 0.72622,-3.33709 h 2.83486 2.83487 l -2.9596,13.92786 -2.95959,13.92786 -3.62931,7.2e-4 -3.62931,7.4e-4 -1.440504,-6.81928 c -2.497958,-11.82523 -3.253729,-14.80975 -3.618479,-14.28937 -0.194986,0.27818 -1.340337,5.14066 -2.545227,10.80552 l -2.190719,10.29974 -3.619279,0.002 -3.619272,0.002 z"
       id="path3862"
       inkscape:connector-curvature="0" />
  </g>
</svg>
